<svg width="1853" height="1901" viewBox="0 0 1853 1901" fill="none" xmlns="http://www.w3.org/2000/svg">
<path d="M790.345 0C1226.84 0 1580.69 369.25 1580.69 824.742C1580.69 827.035 1580.68 829.326 1580.66 831.615H1264.5C1264.53 829.328 1264.55 827.037 1264.55 824.742C1264.55 551.447 1052.24 329.897 790.345 329.897C528.448 329.897 316.138 551.447 316.138 824.742C316.138 827.037 316.159 829.328 316.188 831.615H0.0302017C0.0122989 829.326 0 827.035 0 824.742C0 369.25 353.85 0 790.345 0Z" fill="#027AFF"/>
<path d="M25.6949 1091.86C25.8664 1092.48 26.0423 1093.1 26.2151 1093.72C26.0891 1093.27 25.9578 1092.82 25.8325 1092.37L25.6949 1091.86Z" fill="#005ABF"/>
<path d="M1568.47 972.509C1538.65 1206.04 1415.18 1408.68 1238.76 1537.96L1443.14 1898.63H1044.53L922.74 1674.82C878.036 1683.01 832.04 1687.29 785.087 1687.29C527.782 1687.29 299.201 1558.97 154.884 1360.32C155.241 1360.82 155.594 1361.31 155.952 1361.8C215.985 1330.71 370.142 1274.72 518.775 1293.81C668.597 1313.06 771.342 1307.56 803.986 1302.41C896.193 1292.67 1116.34 1218.56 1259.29 1000C1268.5 996.42 1250.58 986.364 1120.44 972.509H1568.47Z" fill="#005ABF"/>
<path d="M1122.17 972.509C1252.31 986.364 1270.23 996.42 1261.03 1000C1118.08 1218.56 897.925 1292.67 805.718 1302.41C773.073 1307.56 670.328 1313.06 520.506 1293.81C371.874 1274.72 217.717 1330.71 157.683 1361.8C76.6287 1250.75 21.9603 1117.59 3.43628 972.509H1122.17Z" fill="#027AFF"/>
<path d="M1852.16 1728.52C1852.16 1823.42 1775.23 1900.34 1680.34 1900.34C1585.45 1900.34 1508.53 1823.42 1508.53 1728.52C1508.53 1633.63 1585.45 1556.7 1680.34 1556.7C1775.23 1556.7 1852.16 1633.63 1852.16 1728.52Z" fill="#005ABF"/>
</svg>
